<svg width="53" height="54" viewBox="0 0 53 54" fill="none" xmlns="http://www.w3.org/2000/svg">
<path d="M52.972 27.5052C52.972 25.2928 52.7917 23.6784 52.4015 22.0042H27.0279V31.9896H41.9216C41.6214 34.4712 39.9999 38.2083 36.3965 40.7195L36.346 41.0538L44.3687 47.2417L44.9245 47.297C50.0292 42.6031 52.972 35.6969 52.972 27.5052Z" fill="#4285F4"/>
<path d="M27.0279 53.8145C34.3245 53.8145 40.4502 51.4227 44.9245 47.297L36.3965 40.7195C34.1144 42.3041 31.0515 43.4102 27.0279 43.4102C19.8813 43.4102 13.8157 38.7166 11.6535 32.2289L11.3365 32.2557L2.99444 38.6836L2.88535 38.9855C7.32943 47.7752 16.4579 53.8145 27.0279 53.8145Z" fill="#34A853"/>
<path d="M11.6535 32.2289C11.0829 30.5547 10.7528 28.7608 10.7528 26.9073C10.7528 25.0535 11.0829 23.2598 11.6234 21.5856L11.6083 21.229L3.1617 14.6979L2.88534 14.8288C1.05372 18.4762 0.00273132 22.5722 0.00273132 26.9073C0.00273132 31.2423 1.05372 35.3381 2.88534 38.9855L11.6535 32.2289Z" fill="#FBBC05"/>
<path d="M27.0279 10.4041C32.1025 10.4041 35.5257 12.5865 37.4775 14.4104L45.1046 6.99589C40.4204 2.66085 34.3246 7.62939e-06 27.0279 7.62939e-06C16.458 7.62939e-06 7.32944 6.03914 2.88535 14.8288L11.6234 21.5856C13.8157 15.098 19.8813 10.4041 27.0279 10.4041Z" fill="#EB4335"/>
</svg>
