<svg width="98" height="103" viewBox="0 0 98 103" fill="none" xmlns="http://www.w3.org/2000/svg">
<g filter="url(#filter0_d)">
<path d="M6.40975 93.0926C6.13798 93.0926 5.91698 92.8724 5.91698 92.6019V34.1092C5.91698 33.8387 6.13798 33.6185 6.40975 33.6185H91.5901C91.8618 33.6185 92.0831 33.8387 92.0831 34.1092V92.6019C92.0831 92.8724 91.8618 93.0926 91.5901 93.0926H6.40975Z" fill="#262626"/>
<path d="M90.1661 35.5263V91.1849H7.83387V35.5263H90.1661ZM91.5902 31.7111H6.40983C5.07891 31.7111 4 32.7848 4 34.1092V92.602C4 93.9264 5.07891 95 6.40983 95H91.5902C92.9211 95 94 93.9264 94 92.602V34.1092C94 32.7848 92.9211 31.7111 91.5902 31.7111Z" fill="#C4CACE"/>
<path d="M15.0364 41.9418L19.1043 45.8159L15.0364 49.6901L19.1043 45.8159L15.0364 41.9418Z" stroke="white" stroke-width="3" stroke-miterlimit="10" stroke-linejoin="round"/>
<path d="M21.7772 49.3807H27.555" stroke="white" stroke-width="3" stroke-miterlimit="10" stroke-linecap="round" stroke-linejoin="round"/>
<path d="M68.9167 5.89478C68.3544 5.89478 67.8986 5.44117 67.8986 4.88161V1.01316C67.8986 0.453609 68.3544 0 68.9167 0C69.479 0 69.9349 0.453609 69.9349 1.01316V4.88161C69.9349 5.44117 69.479 5.89478 68.9167 5.89478Z" fill="#FFE85F"/>
<path d="M56.2425 11.0908C55.8449 11.4864 55.2003 11.4864 54.8027 11.0908L52.0539 8.35536C51.6563 7.9597 51.6563 7.3182 52.0539 6.92253H52.0539C52.4515 6.52687 53.0961 6.52687 53.4937 6.92253L56.2425 9.65794C56.6401 10.0536 56.6401 10.6951 56.2425 11.0908Z" fill="#FFE85F"/>
<path d="M50.9726 23.6832C50.9726 24.2428 50.5168 24.6964 49.9545 24.6964H46.0671C45.5048 24.6964 45.049 24.2428 45.049 23.6832C45.049 23.1236 45.5048 22.67 46.0671 22.67H49.9545C50.5168 22.67 50.9726 23.1236 50.9726 23.6832Z" fill="#FFE85F"/>
<path d="M56.1941 36.2956C56.5917 36.6913 56.5917 37.3328 56.1941 37.7284L53.4453 40.4638C53.0477 40.8595 52.403 40.8595 52.0054 40.4638H52.0054C51.6078 40.0682 51.6078 39.4267 52.0054 39.031L54.7542 36.2956C55.1518 35.8999 55.7965 35.8999 56.1941 36.2956Z" fill="#FFE85F"/>
<path d="M81.5224 36.3438C81.9201 35.9481 82.5647 35.9481 82.9623 36.3438L85.7111 39.0792C86.1087 39.4749 86.1087 40.1164 85.7111 40.512H85.7111C85.3135 40.9077 84.6689 40.9077 84.2713 40.512L81.5224 37.7766C81.1248 37.381 81.1248 36.7395 81.5224 36.3438Z" fill="#FFE85F"/>
<path d="M86.7923 23.7514C86.7923 23.1918 87.2482 22.7382 87.8105 22.7382H91.6979C92.2602 22.7382 92.716 23.1918 92.716 23.7514C92.716 24.3109 92.2602 24.7645 91.6979 24.7645H87.8105C87.2482 24.7645 86.7923 24.3109 86.7923 23.7514Z" fill="#FFE85F"/>
<path d="M81.5709 11.139C81.1733 10.7433 81.1733 10.1018 81.5709 9.70614L84.3197 6.97073C84.7173 6.57507 85.3619 6.57507 85.7596 6.97073H85.7596C86.1572 7.3664 86.1572 8.0079 85.7596 8.40356L83.0107 11.139C82.6131 11.5346 81.9685 11.5346 81.5709 11.139Z" fill="#FFE85F"/>
<path d="M68.8922 7.95424C60.5978 7.97978 53.7993 14.7196 53.7993 23.0247C53.7993 24.9412 54.1523 26.7875 54.8136 28.4677C55.2244 29.5282 55.7444 30.5503 56.38 31.4767C56.4121 31.5278 56.4506 31.6172 56.4892 31.6747C56.579 31.7961 56.6625 31.9941 56.7459 32.1091C56.7588 32.1155 56.7652 32.1652 56.7716 32.1715C58.98 35.4744 61.946 40.1174 62.1707 48.4224H61.9203C61.6314 48.4224 61.3746 48.4431 61.1885 48.6283C61.0023 48.8136 64.188 49.213 64.188 49.5005C64.188 50.0691 61.349 50.339 61.9203 50.339H75.9155C76.2044 50.339 76.4612 50.2382 76.6473 50.0465C76.8335 49.8613 75.1017 50.0874 75.1017 49.8C75.1017 49.2314 76.4868 48.4224 75.9155 48.4224H75.7165C75.9412 40.1174 78.9135 35.4744 81.1155 32.1715C81.1219 32.1652 81.1219 31.9231 81.1348 31.9168C81.2246 31.7954 81.3017 31.6967 81.3916 31.5753C81.4301 31.5178 81.4622 31.4781 81.4943 31.427C82.1234 30.5006 82.637 29.5033 83.0479 28.4428C83.7027 26.7627 84.0365 24.932 84.0365 23.0155C84.0365 14.7104 77.1802 7.97978 68.8922 7.95424ZM68.186 11.9343C67.8458 11.9534 59.8017 12.4262 58.4857 21.6128C58.4279 21.9897 58.1005 22.2644 57.7282 22.2644C57.6896 22.2644 57.6576 22.2644 57.619 22.2581C57.2017 22.2006 56.9128 21.8109 56.9706 21.402C58.4793 10.9376 68.032 10.4266 68.1283 10.4266C68.5391 10.4074 68.8986 10.7332 68.9179 11.1485C68.9372 11.5637 68.6097 11.9215 68.186 11.9343Z" fill="#FFE85F"/>
<path d="M61.9168 50.4199C61.3434 50.4199 60.8805 49.9593 60.8805 49.3887C60.8805 49.1034 60.998 48.8456 61.1845 48.66C61.371 48.4743 61.6301 48.3575 61.9168 48.3575H75.9129C76.4829 48.3575 76.9492 48.8181 76.9492 49.3887C76.9492 49.674 76.8317 49.9318 76.6452 50.1174C76.4587 50.303 76.1962 50.4199 75.9129 50.4199H61.9168Z" fill="#C4CACE"/>
<path d="M75.9129 51.1073C76.4829 51.1073 76.9492 51.5679 76.9492 52.1385C76.9492 52.4238 76.8317 52.6816 76.6452 52.8672C76.4587 53.0528 76.1962 53.1697 75.9129 53.1697H61.9168C61.3434 53.1697 60.8805 52.7091 60.8805 52.1385C60.8805 51.8532 60.998 51.5954 61.1845 51.4098C61.371 51.2242 61.6301 51.1073 61.9168 51.1073H75.9129Z" fill="#C4CACE"/>
<path d="M64.5458 55.4498H73.2848C73.8547 55.4498 74.321 54.8109 74.321 54.1721H63.5096C63.5096 54.8109 63.9724 55.4498 64.5458 55.4498Z" fill="#606060"/>
</g>
<defs>
<filter id="filter0_d" x="0" y="0" width="98" height="103" filterUnits="userSpaceOnUse" color-interpolation-filters="sRGB">
<feFlood flood-opacity="0" result="BackgroundImageFix"/>
<feColorMatrix in="SourceAlpha" type="matrix" values="0 0 0 0 0 0 0 0 0 0 0 0 0 0 0 0 0 0 127 0"/>
<feOffset dy="4"/>
<feGaussianBlur stdDeviation="2"/>
<feColorMatrix type="matrix" values="0 0 0 0 0 0 0 0 0 0 0 0 0 0 0 0 0 0 0.25 0"/>
<feBlend mode="normal" in2="BackgroundImageFix" result="effect1_dropShadow"/>
<feBlend mode="normal" in="SourceGraphic" in2="effect1_dropShadow" result="shape"/>
</filter>
</defs>
</svg>
