<svg width="100" height="100" viewBox="0 0 100 100" fill="none" xmlns="http://www.w3.org/2000/svg">
<g filter="url(#filter0_d)">
<path d="M51.9842 28.9919C55.0195 28.9919 57.4802 26.5313 57.4802 23.4959C57.4802 20.4606 55.0195 18 51.9842 18C48.9489 18 46.4882 20.4606 46.4882 23.4959C46.4882 26.5313 48.9489 28.9919 51.9842 28.9919Z" fill="#DFDFDF"/>
<path d="M65.0127 70.3523C61.6209 70.2983 58.9534 69.6541 56.8924 68.8587V33.4352H38V37.2358C38 37.2358 42.122 37.1465 46.2439 37.4865V68.9788C44.5265 69.7183 41.6609 70.3011 38.4397 70.3523C38.1889 70.3557 38 70.5549 38 70.8057V72.3858C38 72.64 38.5912 73.2808 38.8454 73.2808H46.66H57.3084H65.4081C65.6623 73.2808 65.4798 72.64 65.4798 72.3858V70.8057C65.4798 70.5549 65.2634 70.3557 65.0127 70.3523Z" fill="#DFDFDF"/>
<path d="M50.0002 92C24.6357 92 4 71.3644 4 46C4 20.6354 24.6357 0 50.0002 0C75.3646 0 96 20.6354 96 46C96 71.3644 75.3646 92 50.0002 92ZM50.0002 5.15245C27.4766 5.15245 9.15246 23.4765 9.15246 46C9.15246 68.5235 27.4766 86.8475 50.0002 86.8475C72.5234 86.8475 90.8475 68.5235 90.8475 46C90.8475 23.4765 72.5234 5.15245 50.0002 5.15245Z" fill="#DFDFDF"/>
<path d="M85.0441 26.8917C89.2351 26.8917 92.6325 23.4943 92.6325 19.3034C92.6325 15.1125 89.2351 11.7151 85.0441 11.7151C80.8532 11.7151 77.4558 15.1125 77.4558 19.3034C77.4558 23.4943 80.8532 26.8917 85.0441 26.8917Z" fill="#DFDFDF"/>
<path d="M11.8791 73.2637C16.0701 73.2637 19.4675 69.8663 19.4675 65.6754C19.4675 61.4845 16.0701 58.0871 11.8791 58.0871C7.68821 58.0871 4.29079 61.4845 4.29079 65.6754C4.29079 69.8663 7.68821 73.2637 11.8791 73.2637Z" fill="#DFDFDF"/>
</g>
<defs>
<filter id="filter0_d" x="0" y="0" width="100" height="100" filterUnits="userSpaceOnUse" color-interpolation-filters="sRGB">
<feFlood flood-opacity="0" result="BackgroundImageFix"/>
<feColorMatrix in="SourceAlpha" type="matrix" values="0 0 0 0 0 0 0 0 0 0 0 0 0 0 0 0 0 0 127 0"/>
<feOffset dy="4"/>
<feGaussianBlur stdDeviation="2"/>
<feColorMatrix type="matrix" values="0 0 0 0 0 0 0 0 0 0 0 0 0 0 0 0 0 0 0.25 0"/>
<feBlend mode="normal" in2="BackgroundImageFix" result="effect1_dropShadow"/>
<feBlend mode="normal" in="SourceGraphic" in2="effect1_dropShadow" result="shape"/>
</filter>
</defs>
</svg>
