<svg width="100" height="100" viewBox="0 0 100 100" fill="none" xmlns="http://www.w3.org/2000/svg">
<path d="M90 0H10C4.5 0 0 4.5 0 10V90C0 95.5 4.5 100 10 100H90C95.5 100 100 95.5 100 90V10C100 4.5 95.5 0 90 0ZM30 85H15V40H30V85ZM22.5 31.5C17.5 31.5 13.5 27.5 13.5 22.5C13.5 17.5 17.5 13.5 22.5 13.5C27.5 13.5 31.5 17.5 31.5 22.5C31.5 27.5 27.5 31.5 22.5 31.5ZM85 85H70V58.5C70 54.5002 66.5 51 62.5 51C58.5 51 55 54.5002 55 58.5V85H40V40H55V46C57.5 42 63 39 67.5 39C77 39 85 47 85 56.5V85Z" fill="white"/>
</svg>
