<svg width="45" height="45" viewBox="0 0 45 45" fill="none" xmlns="http://www.w3.org/2000/svg">
<path d="M41.949 22.824C41.949 33.566 33.239 42.277 22.495 42.277C11.751 42.277 3.04199 33.566 3.04199 22.824C3.04199 12.078 11.751 3.37 22.495 3.37C33.239 3.37 41.949 12.078 41.949 22.824Z" fill="white"/>
<path d="M22.474 0C35.053 0 44.955 10.134 44.955 22.477C44.955 34.893 34.888 44.955 22.474 44.955C10.062 44.956 0 34.893 0 22.478C0 10.061 10.062 0 22.474 0ZM22.424 27.191L16.137 6.329L7.996 33.039H9.523C9.523 33.039 10.55 28.393 12.22 25.618C13.129 24.111 14.53 22.879 16.403 22.913C17.722 22.939 18.865 23.66 20.292 25.656C21.15 26.851 22.471 29.9 22.471 29.9C22.471 29.9 23.793 26.855 24.654 25.656C26.077 23.66 27.22 22.939 28.543 22.913C30.414 22.879 31.818 24.111 32.723 25.621C34.394 28.392 35.42 33.039 35.42 33.039H36.951L28.805 6.329L22.519 27.191L22.474 27.228L22.424 27.191V27.191Z" fill="#005DAA"/>
</svg>
