<svg width="100" height="125" viewBox="0 0 100 125" fill="none" xmlns="http://www.w3.org/2000/svg">
<g filter="url(#filter0_d)">
<path d="M86.4411 111.076H13.9509C12.0937 111.076 10.5881 109.58 10.5881 107.735V8.16108C10.5881 6.31577 12.0937 4.81985 13.9509 4.81985H73.3549L89.8039 18.9303V107.735C89.8039 109.58 88.2984 111.076 86.4411 111.076Z" fill="#EFEFEF"/>
<path d="M73.3546 4.81985V17.4057C73.3546 18.2479 74.0417 18.9306 74.8894 18.9306H89.8039" fill="#AFAFAF"/>
<path d="M46.9787 28.9814H19.4408C17.7484 28.9814 16.3764 27.6182 16.3764 25.9366V25.9366C16.3764 24.255 17.7484 22.8918 19.4408 22.8918H46.9787C48.6711 22.8918 50.0431 24.255 50.0431 25.9366V25.9366C50.0431 27.6182 48.6711 28.9814 46.9787 28.9814Z" fill="#C4C4C4"/>
<path d="M81.8652 42.9418H63.3117C61.6192 42.9418 60.2472 41.5786 60.2472 39.897V39.897C60.2472 38.2154 61.6192 36.8522 63.3117 36.8522H81.8652C83.5576 36.8522 84.9296 38.2154 84.9296 39.897V39.897C84.9296 41.5786 83.5576 42.9418 81.8652 42.9418Z" fill="#C4C4C4"/>
<path d="M53.8843 42.9418H19.4768C17.7844 42.9418 16.4124 41.5786 16.4124 39.897V39.897C16.4124 38.2154 17.7844 36.8522 19.4768 36.8522H53.8843C55.5767 36.8522 56.9487 38.2154 56.9487 39.897V39.897C56.9487 41.5786 55.5767 42.9418 53.8843 42.9418Z" fill="#C4C4C4"/>
<path d="M81.8652 56.9021H19.2113C17.5188 56.9021 16.1468 55.539 16.1468 53.8574V53.8574C16.1468 52.1758 17.5188 50.8126 19.2113 50.8126H81.8652C83.5576 50.8126 84.9296 52.1758 84.9296 53.8574V53.8574C84.9296 55.5389 83.5576 56.9021 81.8652 56.9021Z" fill="#C4C4C4"/>
<path d="M81.8652 70.8625H19.2113C17.5188 70.8625 16.1468 69.4993 16.1468 67.8177V67.8177C16.1468 66.1361 17.5188 64.773 19.2113 64.773H81.8652C83.5576 64.773 84.9296 66.1361 84.9296 67.8177V67.8177C84.9296 69.4993 83.5576 70.8625 81.8652 70.8625Z" fill="#C4C4C4"/>
<path d="M81.8888 84.8229H19.2349C17.5425 84.8229 16.1705 83.4597 16.1705 81.7781V81.7781C16.1705 80.0965 17.5425 78.7333 19.2349 78.7333H81.8888C83.5812 78.7333 84.9532 80.0965 84.9532 81.7781V81.7781C84.9532 83.4597 83.5812 84.8229 81.8888 84.8229Z" fill="#C4C4C4"/>
<path d="M82.1307 98.7833H19.4768C17.7844 98.7833 16.4124 97.4201 16.4124 95.7385V95.7385C16.4124 94.0569 17.7844 92.6937 19.4768 92.6937H82.1307C83.8232 92.6937 85.1952 94.0569 85.1952 95.7385V95.7385C85.1952 97.4201 83.8232 98.7833 82.1307 98.7833Z" fill="#C4C4C4"/>
<g filter="url(#filter1_d)">
<path d="M82.8216 8.9628L85.4416 10.329C86.0748 10.6592 86.0903 11.5543 85.4689 11.9059L82.8976 13.3607C82.7473 13.4458 82.6246 13.5719 82.5442 13.7241L81.1692 16.3274C80.8369 16.9565 79.936 16.9719 79.5821 16.3545L78.1179 13.7997C78.0323 13.6503 77.9054 13.5284 77.7522 13.4486L75.1321 12.0823C74.499 11.7522 74.4835 10.857 75.1049 10.5055L77.6762 9.05061C77.8265 8.96555 77.9491 8.83945 78.0295 8.68725L79.4046 6.08395C79.7369 5.45484 80.6378 5.43947 80.9916 6.05687L82.4559 8.6117C82.5414 8.76108 82.6684 8.88292 82.8216 8.9628Z" fill="white"/>
</g>
<path d="M9.08022 2.08833L10.7087 2.9375C11.1022 3.1427 11.1119 3.69906 10.7256 3.91758L9.12747 4.82182C9.03404 4.87468 8.95782 4.95306 8.90785 5.04766L8.05321 6.66569C7.84668 7.05671 7.28673 7.06627 7.06681 6.68253L6.15674 5.09461C6.10353 5.00177 6.02464 4.92604 5.92943 4.8764L4.30096 4.02723C3.90743 3.82203 3.89781 3.26567 4.28402 3.04715L5.88218 2.14292C5.97562 2.09005 6.05184 2.01168 6.10181 1.91708L6.95645 0.299036C7.16298 -0.0919777 7.72293 -0.101533 7.94285 0.282201L8.85292 1.87012C8.90613 1.96296 8.98501 2.03869 9.08022 2.08833Z" fill="white"/>
<path d="M93.9806 111.896L95.685 112.785C96.0969 113 96.107 113.582 95.7027 113.811L94.0301 114.757C93.9323 114.813 93.8525 114.895 93.8002 114.994L92.9057 116.687C92.6896 117.096 92.1035 117.106 91.8734 116.705L90.9209 115.043C90.8652 114.946 90.7826 114.866 90.683 114.814L88.9786 113.926C88.5667 113.711 88.5567 113.129 88.9609 112.9L90.6335 111.953C90.7313 111.898 90.8111 111.816 90.8634 111.717L91.7579 110.024C91.974 109.614 92.5601 109.604 92.7902 110.006L93.7427 111.668C93.7984 111.765 93.881 111.844 93.9806 111.896Z" fill="white"/>
</g>
<defs>
<filter id="filter0_d" x="0" y="0" width="100" height="125" filterUnits="userSpaceOnUse" color-interpolation-filters="sRGB">
<feFlood flood-opacity="0" result="BackgroundImageFix"/>
<feColorMatrix in="SourceAlpha" type="matrix" values="0 0 0 0 0 0 0 0 0 0 0 0 0 0 0 0 0 0 127 0"/>
<feOffset dy="4"/>
<feGaussianBlur stdDeviation="2"/>
<feColorMatrix type="matrix" values="0 0 0 0 0 0 0 0 0 0 0 0 0 0 0 0 0 0 0.25 0"/>
<feBlend mode="normal" in2="BackgroundImageFix" result="effect1_dropShadow"/>
<feBlend mode="normal" in="SourceGraphic" in2="effect1_dropShadow" result="shape"/>
</filter>
<filter id="filter1_d" x="70.6479" y="5.60283" width="19.278" height="19.2057" filterUnits="userSpaceOnUse" color-interpolation-filters="sRGB">
<feFlood flood-opacity="0" result="BackgroundImageFix"/>
<feColorMatrix in="SourceAlpha" type="matrix" values="0 0 0 0 0 0 0 0 0 0 0 0 0 0 0 0 0 0 127 0"/>
<feOffset dy="4"/>
<feGaussianBlur stdDeviation="2"/>
<feColorMatrix type="matrix" values="0 0 0 0 0 0 0 0 0 0 0 0 0 0 0 0 0 0 0.25 0"/>
<feBlend mode="normal" in2="BackgroundImageFix" result="effect1_dropShadow"/>
<feBlend mode="normal" in="SourceGraphic" in2="effect1_dropShadow" result="shape"/>
</filter>
</defs>
</svg>
