<svg width="85" height="98" viewBox="0 0 85 98" fill="none" xmlns="http://www.w3.org/2000/svg">
<path d="M75.9597 10.612H6.52139V90.2017H75.9597V10.612Z" fill="#EFEFEF"/>
<path d="M16.4293 10.612V0.0197144C11.4444 0.0197144 6.52139 5.5003 6.52139 10.612H16.4293Z" fill="#EFEFEF"/>
<path d="M81.5706 0H16.3141V10.612H75.9491V5.31584C75.9491 2.39085 79.0143 0 81.5706 0Z" fill="#EFEFEF"/>
<path d="M80.4798 0.0467072C77.9834 0.0467072 75.9597 2.39506 75.9597 5.34283H85C85 2.39506 82.9763 0.0467072 80.4798 0.0467072Z" fill="#C1C1C1"/>
<path d="M69.2818 90.2017H11.5743V98H69.2818V90.2017Z" fill="#C1C1C1"/>
<path d="M11.148 98C17.3049 98 22.2961 94.6055 22.2961 90.2017H0C0 94.6055 4.99113 98 11.148 98Z" fill="#C1C1C1"/>
<path d="M62.6309 90.2017C62.6169 90.2017 62.6039 90.3976 62.6039 90.6006C62.6039 94.7431 65.5937 98 69.2818 98C72.9699 98 75.9597 94.7938 75.9597 90.6513C75.9597 90.4482 75.9467 90.2017 75.9326 90.2017H62.6309Z" fill="#EFEFEF"/>
<path d="M69.3967 17.9814H12.7668C11.8561 17.9814 11.1179 17.2411 11.1179 16.3279V16.3279C11.1179 15.4147 11.8561 14.6744 12.7668 14.6744H69.3967C70.3073 14.6744 71.0455 15.4147 71.0455 16.3279V16.3279C71.0455 17.2411 70.3073 17.9814 69.3967 17.9814Z" fill="#C4C4C4"/>
<path d="M69.3967 27.1839H12.7668C11.8561 27.1839 11.1179 26.4436 11.1179 25.5304C11.1179 24.6172 11.8561 23.8769 12.7668 23.8769H69.3967C70.3073 23.8769 71.0455 24.6172 71.0455 25.5304C71.0455 26.4436 70.3073 27.1839 69.3967 27.1839Z" fill="#C4C4C4"/>
<path d="M69.3967 36.3864H12.7668C11.8561 36.3864 11.1179 35.6461 11.1179 34.7329C11.1179 33.8197 11.8561 33.0794 12.7668 33.0794H69.3967C70.3073 33.0794 71.0455 33.8197 71.0455 34.7329C71.0455 35.6461 70.3073 36.3864 69.3967 36.3864Z" fill="#C4C4C4"/>
<path d="M69.3967 45.5889H12.7668C11.8561 45.5889 11.1179 44.8486 11.1179 43.9354V43.9354C11.1179 43.0222 11.8561 42.282 12.7668 42.282H69.3967C70.3073 42.282 71.0455 43.0222 71.0455 43.9354V43.9354C71.0455 44.8486 70.3073 45.5889 69.3967 45.5889Z" fill="#C4C4C4"/>
<path d="M69.3967 54.7914H12.7668C11.8561 54.7914 11.1179 54.0511 11.1179 53.1379C11.1179 52.2247 11.8561 51.4845 12.7668 51.4845H69.3967C70.3073 51.4845 71.0455 52.2247 71.0455 53.1379C71.0455 54.0511 70.3073 54.7914 69.3967 54.7914Z" fill="#C4C4C4"/>
<path d="M39.278 84.9231H12.4267C11.7916 84.9231 11.2767 84.4068 11.2767 83.7699V82.7694C11.2767 82.1324 11.7916 81.6161 12.4267 81.6161H39.278C39.9132 81.6161 40.428 82.1324 40.428 82.7694V83.7699C40.428 84.4068 39.9132 84.9231 39.278 84.9231Z" fill="#C4C4C4"/>
<path d="M61.9729 80.8763L60.4262 81.8063C60.1913 81.9468 59.8998 81.9598 59.6529 81.8397L58.0142 81.0469C58.0026 81.0411 57.9923 81.0359 57.9826 81.031C57.9081 81 57.83 80.9776 57.7514 80.9716C57.6854 80.9651 57.6202 80.9666 57.5557 80.9762L55.7712 81.2404C55.4987 81.2822 55.2251 81.1816 55.0427 80.9769L53.8461 79.6221C53.7373 79.5002 53.5936 79.4122 53.4362 79.3735L51.7893 78.9505C51.7632 78.9439 51.8158 78.9474 51.8165 78.9424L50.3107 88.4989C50.2952 88.597 50.3098 88.6632 50.422 88.6328L56.7945 86.8866C56.8447 86.873 56.8756 86.8779 56.9193 86.9064L62.7266 90.5826C62.8241 90.6462 63.1923 90.6407 63.2077 90.5426L64.72 80.9451L62.6836 80.7993C62.5198 80.7892 62.1142 80.792 61.9729 80.8763Z" fill="#333333"/>
<path d="M65.177 59.9543C65.2858 60.0762 65.4305 60.1643 65.5898 60.2034L67.3408 60.6428C67.6058 60.7105 67.8213 60.9066 67.9102 61.1675L68.5016 62.8767C68.5557 63.0334 68.6548 63.1676 68.7851 63.2653L70.2339 64.3441C70.4544 64.5074 70.5781 64.7719 70.5625 65.0459L70.4549 66.8536C70.45 66.9348 70.4573 67.0165 70.4764 67.0953C70.4573 67.0165 70.45 66.9348 70.4549 66.8536L70.5625 65.0459C70.5782 64.7719 70.4544 64.5074 70.234 64.3441L68.7852 63.2653C68.6548 63.1676 68.5558 63.0334 68.5018 62.8767L67.9105 61.1676C67.8216 60.9066 67.6063 60.7106 67.3413 60.6429L65.5908 60.2036C65.4316 60.1645 65.2879 60.0765 65.1791 59.9546L63.9825 58.5998C63.8456 58.4462 63.6573 58.3513 63.4568 58.3311C63.6557 58.353 63.8433 58.4475 63.9784 58.5992L65.177 59.9543Z" fill="#333333"/>
<path d="M55.0427 80.9769C55.2251 81.1816 55.4987 81.2822 55.7712 81.2404L57.5557 80.9762C57.6202 80.9666 57.6854 80.9651 57.7514 80.9716C57.83 80.9776 57.9081 81 57.9826 81.031C57.9196 80.9995 57.8863 80.9862 57.7187 80.9665C58.0083 79.9755 58.2787 78.9816 58.533 77.9852C58.4313 77.9729 58.3297 77.9609 58.2277 77.9447C53.7357 77.2329 50.6697 73.0042 51.3795 68.4996C52.0893 63.9949 56.3062 60.9203 60.7981 61.6321C60.9003 61.6483 60.9676 61.8459 61.0683 61.8656C61.1326 60.839 61.1502 59.5449 61.1765 58.9554C61.1765 58.9554 61.1781 58.9554 61.1785 58.9554C61.0927 58.9554 61.0415 58.7441 60.9632 58.7053L59.3556 57.8258C59.1087 57.7057 58.8274 57.6746 58.5906 57.8149L57.048 58.7226C56.9068 58.8069 56.7467 58.8372 56.5829 58.8271L54.7832 58.7139C54.51 58.6982 54.247 58.8176 54.0823 59.0384L53.0084 60.4921C52.911 60.6228 52.7754 60.7211 52.6211 60.7757L50.9171 61.3663C50.6565 61.4574 50.4595 61.6708 50.3936 61.9389L49.9555 63.6942C49.9146 63.8536 49.8292 63.996 49.7057 64.1048L48.3563 65.307C48.1522 65.4899 48.0519 65.7643 48.0919 66.0353L48.3573 67.8252C48.3808 67.9888 48.3547 68.1545 48.2843 68.3014L47.4962 69.9282C47.3764 70.1759 47.3875 70.4679 47.5295 70.7037L48.4566 72.2568C48.5409 72.3965 48.58 72.5607 48.5721 72.7234L48.4645 74.5311C48.447 74.8048 48.5707 75.0693 48.7912 75.2326L50.24 76.3114C50.3723 76.4094 50.4712 76.5436 50.5234 76.7L51.1147 78.4092C51.1949 78.6446 51.3785 78.8263 51.6096 78.9096C51.6346 78.9186 51.6597 78.9275 51.6858 78.9341L53.4363 79.3735C53.5936 79.4122 53.7373 79.5002 53.8461 79.6221L55.0427 80.9769Z" fill="#333333"/>
<path d="M51.3795 68.4996C50.6697 73.0041 53.7357 77.2329 58.2277 77.9447C58.3296 77.9609 58.4313 77.9729 58.533 77.9852C59.8993 72.6314 60.7559 67.1991 61.1015 61.6881C61.0008 61.6683 60.9003 61.6483 60.7981 61.6321C56.3062 60.9203 52.0893 63.9949 51.3795 68.4996Z" fill="#333333"/>
<path opacity="0.15" d="M61.4362 58.8116L63.2373 58.4418C63.3053 58.4314 63.3817 58.3771 63.4484 58.3838C63.3789 58.3761 63.3122 58.3505 63.2416 58.3614L61.4177 58.8225C61.3557 58.8317 61.1889 59.0243 61.1785 59.0227C61.1887 59.0243 61.1989 59.0259 61.2092 59.0276C61.2726 59.0376 61.3717 58.8212 61.4362 58.8116Z" fill="#333333"/>
<path d="M59.6529 81.8397L58.0306 81.0494C58.0152 81.0418 57.9985 81.0376 57.9826 81.031C57.9923 81.0358 58.0026 81.041 58.0142 81.0468L59.6529 81.8397Z" fill="#333333"/>
<path opacity="0.15" d="M59.6529 81.8397L58.0306 81.0494C58.0152 81.0418 57.9985 81.0376 57.9826 81.031C57.9923 81.0358 58.0026 81.041 58.0142 81.0468L59.6529 81.8397Z" fill="#333333"/>
<path d="M70.9333 73.5414L70.6697 71.7519C70.6444 71.5879 70.6705 71.4222 70.7428 71.2756L71.5309 69.6488C71.6507 69.4011 71.6377 69.1088 71.4956 68.873L70.5686 67.3199C70.5264 67.2501 70.4955 67.1741 70.4764 67.0953C70.4573 67.0165 70.45 66.9348 70.4549 66.8536L70.5625 65.0459C70.5781 64.7719 70.4544 64.5074 70.2339 64.344L68.7851 63.2653C68.6547 63.1676 68.5557 63.0334 68.5016 62.8767L67.9102 61.1675C67.8213 60.9066 67.6058 60.7105 67.3407 60.6428L65.5898 60.2034C65.4305 60.1643 65.2858 60.0762 65.177 59.9543L63.9784 58.5992C63.8432 58.4475 63.6557 58.353 63.4567 58.331C63.39 58.3243 63.322 58.3259 63.254 58.3363L61.4362 58.8116C61.3717 58.8212 61.2726 59.0039 61.2092 58.9939C61.1989 58.9923 61.1887 58.9554 61.1785 58.9554C61.1781 58.9554 61.1765 58.9554 61.1765 58.9554C61.1502 59.5449 61.1326 60.839 61.0683 61.8656C65.3934 62.716 68.3233 66.7639 67.6296 71.166C66.9359 75.5684 62.9008 78.5584 58.5247 78.0296C58.2704 79.026 58.0041 79.9977 57.7145 80.9886C57.8822 81.0084 57.9175 81.0106 57.9806 81.0421C57.9964 81.0487 58.0142 81.0474 58.0295 81.055L59.6523 81.8425C59.8993 81.9626 60.1911 81.9482 60.4259 81.8076L61.9728 80.877C62.1141 80.7927 62.2722 80.7767 62.436 80.7869L64.225 80.9195L64.2326 80.9207C64.5036 80.9637 64.7754 80.7883 64.9382 80.5673L66.0164 79.0993C66.1138 78.9686 66.2486 78.8628 66.4029 78.8083L68.1094 78.2143C68.368 78.1229 68.5654 77.9077 68.6313 77.6396L69.0714 75.8837C69.1104 75.724 69.1978 75.5814 69.3194 75.4723L70.6688 74.2699C70.8748 74.0873 70.9733 73.8124 70.9333 73.5414Z" fill="#333333"/>
<path opacity="0.15" d="M70.9333 73.5414L70.6697 71.7519C70.6444 71.5879 70.6705 71.4222 70.7428 71.2756L71.5309 69.6488C71.6507 69.4011 71.6377 69.1088 71.4956 68.873L70.5686 67.3199C70.5264 67.2501 70.4955 67.1741 70.4764 67.0953C70.4573 67.0165 70.45 66.9348 70.4549 66.8536L70.5625 65.0459C70.5781 64.7719 70.4544 64.5074 70.2339 64.344L68.7851 63.2653C68.6547 63.1676 68.5557 63.0334 68.5016 62.8767L67.9102 61.1675C67.8213 60.9066 67.6058 60.7105 67.3407 60.6428L65.5898 60.2034C65.4305 60.1643 65.2858 60.0762 65.177 59.9543L63.9784 58.5992C63.8432 58.4475 63.6557 58.353 63.4567 58.331C63.39 58.3243 63.322 58.3259 63.254 58.3363L61.4362 58.8116C61.3717 58.8212 61.2726 59.0039 61.2092 58.9939C61.1989 58.9923 61.1887 58.9554 61.1785 58.9554C61.1781 58.9554 61.1765 58.9554 61.1765 58.9554C61.1502 59.5449 61.1326 60.839 61.0683 61.8656C65.3934 62.716 68.3233 66.7639 67.6296 71.166C66.9359 75.5684 62.9008 78.5584 58.5247 78.0296C58.2704 79.026 58.0041 79.9977 57.7145 80.9886C57.8822 81.0084 57.9175 81.0106 57.9806 81.0421C57.9964 81.0487 58.0142 81.0474 58.0295 81.055L59.6523 81.8425C59.8993 81.9626 60.1911 81.9482 60.4259 81.8076L61.9728 80.877C62.1141 80.7927 62.2722 80.7767 62.436 80.7869L64.225 80.9195L64.2326 80.9207C64.5036 80.9637 64.7754 80.7883 64.9382 80.5673L66.0164 79.0993C66.1138 78.9686 66.2486 78.8628 66.4029 78.8083L68.1094 78.2143C68.368 78.1229 68.5654 77.9077 68.6313 77.6396L69.0714 75.8837C69.1104 75.724 69.1978 75.5814 69.3194 75.4723L70.6688 74.2699C70.8748 74.0873 70.9733 73.8124 70.9333 73.5414Z" fill="#333333"/>
<path d="M58.533 77.9852C62.9091 78.514 66.9526 75.4796 67.6462 71.0772C68.3399 66.6751 65.4267 62.5384 61.1015 61.6881C60.7559 67.1991 59.8993 72.6314 58.533 77.9852Z" fill="#333333"/>
<path opacity="0.15" d="M58.533 77.9852C62.9091 78.514 66.9526 75.4796 67.6462 71.0772C68.3399 66.6751 65.4267 62.5384 61.1015 61.6881C60.7559 67.1991 59.8993 72.6314 58.533 77.9852Z" fill="#333333"/>
<path d="M49.4489 87.8861L55.8731 86.1481C55.9234 86.1345 55.9801 86.1435 56.0238 86.172L61.6006 89.8117C61.698 89.8753 61.8357 89.8333 61.8512 89.7351L64.8885 70.4592L52.2715 68.4599L49.2341 87.7358C49.2186 87.8339 49.3367 87.9165 49.4489 87.8861Z" fill="#8E0909"/>
<path d="M69.7992 73.5395L68.4498 74.7416C68.3283 74.8508 68.2409 74.9929 68.2019 75.1526L67.7619 76.9077C67.696 77.1757 67.4989 77.3894 67.2403 77.4807L65.5343 78.0715C65.38 78.126 65.2462 78.2253 65.1488 78.356L64.0727 79.8108C63.9099 80.0319 63.6464 80.154 63.3713 80.1381L61.5705 80.0305C61.4067 80.0203 61.2446 80.0618 61.1033 80.146L59.5566 81.076C59.3217 81.2165 59.0302 81.2296 58.7832 81.1095L57.1609 80.3192C57.0733 80.2756 56.9771 80.2486 56.8817 80.2413C56.8158 80.2349 56.7506 80.2364 56.6861 80.2459L54.9015 80.5102C54.6291 80.5519 54.3555 80.4513 54.173 80.2466L52.9765 78.8918C52.8677 78.7699 52.724 78.6819 52.5666 78.6432L50.8162 78.2039C50.5492 78.1359 50.3339 77.9398 50.2451 77.6789L49.6538 75.9697C49.6016 75.8133 49.5026 75.6791 49.3704 75.5812L47.9216 74.5024C47.7011 74.3391 47.5774 74.0746 47.5949 73.8009L47.7025 71.9931C47.7104 71.8304 47.6713 71.6662 47.587 71.5265L46.6599 69.9735C46.5179 69.7377 46.5068 69.4456 46.6265 69.1979L47.4146 67.5711C47.485 67.4243 47.5111 67.2586 47.4877 67.0949L47.2222 65.305C47.1822 65.034 47.2826 64.7596 47.4867 64.5767L48.8361 63.3745C48.9595 63.2657 49.045 63.1232 49.0859 62.9638L49.524 61.2085C49.5899 60.9404 49.787 60.7268 50.0475 60.6357L51.7516 60.0447C51.9059 59.9902 52.0416 59.8912 52.139 59.7605L53.2132 58.3054C53.3779 58.0846 53.6414 57.9624 53.9146 57.9781L55.7154 58.0857C55.8792 58.0959 56.0413 58.0544 56.1826 57.9701L57.7293 57.0402C57.9661 56.9 58.2557 56.8866 58.5027 57.0067L60.1269 57.7973C60.2145 57.8408 60.3088 57.8676 60.4061 57.8751C60.4701 57.8813 60.5353 57.8798 60.5998 57.8703L62.3843 57.606C62.6568 57.5643 62.9304 57.6649 63.1128 57.8696L64.3094 59.2244C64.4182 59.3463 64.5619 59.4342 64.7212 59.4733L66.4716 59.9126C66.7367 59.9803 66.9519 60.1764 67.0408 60.4373L67.6321 62.1465C67.6862 62.3032 67.7852 62.4373 67.9155 62.535L69.3643 63.6138C69.5848 63.7771 69.7085 64.0416 69.6929 64.3156L69.5853 66.1234C69.5755 66.2857 69.6146 66.4499 69.6989 66.5897L70.626 68.1427C70.768 68.3785 70.781 68.6709 70.6613 68.9185L69.8732 70.5454C69.8009 70.6919 69.7747 70.8576 69.8001 71.0216L70.0636 72.8112C70.1037 73.0821 70.0052 73.3568 69.7992 73.5395Z" fill="#AA0404"/>
<path d="M58.6433 77.3156C63.1909 77.3156 66.8776 73.6186 66.8776 69.0581C66.8776 64.4976 63.1909 60.8006 58.6433 60.8006C54.0956 60.8006 50.409 64.4976 50.409 69.0581C50.409 73.6186 54.0956 77.3156 58.6433 77.3156Z" fill="#FFD700"/>
<path opacity="0.15" d="M69.7992 73.5395L68.4498 74.7417C68.3283 74.8508 68.2409 74.9929 68.2019 75.1527L67.7619 76.9077C67.696 77.1758 67.4989 77.3894 67.2403 77.4808L65.5343 78.0715C65.38 78.126 65.2462 78.2253 65.1488 78.356L64.0728 79.8108C63.9099 80.0319 63.6465 80.154 63.3713 80.1381L61.5705 80.0305C61.4067 80.0203 61.2446 80.0618 61.1033 80.146L59.5566 81.076C59.3217 81.2165 59.0302 81.2296 58.7833 81.1095L57.1446 80.3166C57.0569 80.2731 57.0424 80.2589 56.8491 80.2362C58.9847 72.9288 60.1605 65.4736 60.3734 57.8699C60.374 57.8661 60.519 57.8772 60.5835 57.8677L62.3762 57.6047C62.6486 57.563 62.9264 57.6643 63.1088 57.8689L64.3074 59.2241C64.4162 59.346 64.5609 59.4341 64.7202 59.4731L66.4711 59.9125C66.7362 59.9802 66.9517 60.1763 67.0406 60.4373L67.632 62.1465C67.6861 62.3031 67.7851 62.4373 67.9155 62.535L69.3643 63.6138C69.5848 63.7771 69.7085 64.0416 69.6929 64.3156L69.5853 66.1234C69.5755 66.2857 69.6146 66.4499 69.6989 66.5897L70.626 68.1427C70.768 68.3785 70.781 68.6709 70.6613 68.9185L69.8732 70.5454C69.8009 70.6919 69.7748 70.8576 69.8001 71.0216L70.0636 72.8112C70.1037 73.0821 70.0052 73.3568 69.7992 73.5395Z" fill="#7A0909"/>
</svg>
